<?xml version="1.0" standalone="no"?>
<!DOCTYPE svg PUBLIC "-//W3C//DTD SVG 20010904//EN"
 "http://www.w3.org/TR/2001/REC-SVG-20010904/DTD/svg10.dtd">
<svg version="1.0" xmlns="http://www.w3.org/2000/svg"
 width="600.000000pt" height="600.000000pt" viewBox="0 0 600.000000 600.000000"
 preserveAspectRatio="xMidYMid meet">
<metadata>
Created by potrace 1.11, written by Peter Selinger 2001-2013
</metadata>
<g transform="translate(0.000000,600.000000) scale(0.100000,-0.100000)"
fill="#19526f" stroke="none">
<path d="M2800 4830 c-309 -39 -618 -156 -860 -328 -105 -75 -281 -239 -364
-341 -445 -546 -536 -1312 -231 -1949 250 -522 718 -887 1294 -1009 115 -25
146 -27 356 -28 202 0 244 3 345 23 1017 206 1663 1168 1460 2175 -149 735
-744 1309 -1495 1442 -107 19 -399 28 -505 15z m460 -296 c663 -112 1186 -651
1279 -1318 15 -110 13 -334 -4 -446 -84 -547 -449 -1006 -963 -1210 -56 -22
-104 -40 -107 -40 -3 0 -5 89 -5 198 0 277 -18 357 -102 445 -21 22 -38 41
-38 42 0 1 29 5 65 9 169 17 363 90 480 180 117 90 212 236 249 381 40 158 45
382 11 510 -22 82 -64 169 -114 235 -32 42 -41 61 -36 80 24 103 28 174 17
263 -7 50 -19 116 -28 145 l-16 52 -52 0 c-88 0 -277 -73 -392 -152 l-52 -35
-70 18 c-206 52 -558 52 -764 0 l-67 -17 -53 34 c-135 87 -305 152 -399 152
l-47 0 -22 -62 c-30 -87 -38 -258 -16 -351 l16 -68 -39 -52 c-152 -204 -184
-519 -82 -815 39 -112 83 -183 167 -268 59 -60 90 -81 175 -123 104 -50 254
-95 356 -107 49 -6 86 -24 49 -24 -24 0 -84 -66 -94 -102 -7 -27 -16 -34 -62
-50 -177 -61 -307 -21 -409 126 -76 111 -151 168 -238 182 -41 6 -93 -9 -93
-27 0 -7 16 -26 36 -43 132 -115 136 -120 187 -225 61 -128 114 -188 200 -227
59 -28 68 -29 210 -29 l147 0 0 -137 0 -138 -72 26 c-435 157 -790 521 -938
961 -61 182 -73 267 -74 493 0 221 14 320 70 490 132 397 442 746 819 920 284
131 608 175 915 124z"/>
</g>
</svg>
