<?xml version="1.0" encoding="UTF-8" standalone="no"?>
<svg
   xmlns:dc="http://purl.org/dc/elements/1.1/"
   xmlns:cc="http://creativecommons.org/ns#"
   xmlns:rdf="http://www.w3.org/1999/02/22-rdf-syntax-ns#"
   xmlns:svg="http://www.w3.org/2000/svg"
   xmlns="http://www.w3.org/2000/svg"
   viewBox="0 0 45.724998 45.724998"
   height="45.724998"
   width="45.724998"
   xml:space="preserve"
   version="1.1"
   id="svg2"><metadata
     id="metadata8"><rdf:RDF><cc:Work
         rdf:about=""><dc:format>image/svg+xml</dc:format><dc:type
           rdf:resource="http://purl.org/dc/dcmitype/StillImage" /></cc:Work></rdf:RDF></metadata><defs
     id="defs6"><clipPath
       id="clipPath18"
       clipPathUnits="userSpaceOnUse"><path
         id="path20"
         d="M 0,365.828 0,0 l 365.84,0 0,365.828 -365.84,0 z" /></clipPath></defs><g
     transform="matrix(1.25,0,0,-1.25,0,45.725)"
     id="g10"><g
       transform="scale(0.1,0.1)"
       id="g12"><g
         id="g14"><g
           clip-path="url(#clipPath18)"
           id="g16"><path
             id="path22"
             style="fill:#19526f;fill-opacity:1;fill-rule:nonzero;stroke:none"
             d="m 267.59,187.578 c 0,-46.758 -37.91,-84.668 -84.668,-84.668 -46.762,0 -84.6603,37.91 -84.6603,84.668 0,10.582 2.0273,20.66 5.5663,30 L 0,217.578 0,91.4531 C 0,40.9375 40.9531,0 91.4609,0 L 274.387,0 c 50.508,0 91.453,40.9375 91.453,91.4531 l 0,126.1249 -103.828,0 c 3.547,-9.34 5.578,-19.418 5.578,-30" /><path
             id="path24"
             style="fill:#19526f;fill-opacity:1;fill-rule:nonzero;stroke:none"
             d="m 182.922,238.391 c 28.062,0 50.808,-22.75 50.808,-50.813 0,-28.058 -22.746,-50.812 -50.808,-50.812 -28.063,0 -50.813,22.754 -50.813,50.812 0,28.063 22.75,50.813 50.813,50.813" /><path
             id="path26"
             style="fill:#19526f;fill-opacity:1;fill-rule:nonzero;stroke:none"
             d="m 315.242,279.336 c 0,-5.668 -4.605,-10.277 -10.281,-10.277 l -30.828,0 c -5.688,0 -10.285,4.597 -10.285,10.277 l 0,30.84 c 0,5.672 4.597,10.281 10.285,10.281 l 30.828,0 c 5.676,0 10.281,-4.598 10.281,-10.281 l 0,-30.84 z m -40.855,86.492 -178.1058,0 0,-95.371 -20,0 0,94.012 c -6.9609,-1.16 -13.6757,-3.035 -20,-5.672 l 0,-88.34 -20,0 0,76.731 C 14.2695,330.488 0,304.125 0,274.367 l 0,-26.777 123.207,0 c 15.313,15.226 36.41,24.644 59.715,24.644 23.301,0 44.39,-9.418 59.707,-24.644 l 123.211,0 0,26.777 c 0,50.512 -40.945,91.461 -91.453,91.461" /></g></g></g></g></svg>