<?xml version="1.0" standalone="no"?>
<!DOCTYPE svg PUBLIC "-//W3C//DTD SVG 20010904//EN"
 "http://www.w3.org/TR/2001/REC-SVG-20010904/DTD/svg10.dtd">
<svg version="1.0" xmlns="http://www.w3.org/2000/svg"
 width="150.000000pt" height="150.000000pt" viewBox="0 0 150.000000 150.000000"
 preserveAspectRatio="xMidYMid meet">
<metadata>
Created by potrace 1.11, written by Peter Selinger 2001-2013
</metadata>
<g transform="translate(0.000000,150.000000) scale(0.100000,-0.100000)"
fill="#19526f" stroke="none">
<path d="M332 1180 c-62 -38 -67 -117 -10 -165 28 -23 39 -26 80 -23 84 9 129
78 94 147 -31 59 -104 77 -164 41z"/>
<path d="M894 901 c-22 -10 -50 -31 -62 -45 l-21 -27 -3 38 -3 38 -97 3 -98 3
0 -306 0 -306 98 3 97 3 5 195 c3 107 9 203 14 213 20 41 111 61 148 33 39
-30 48 -77 48 -266 l0 -180 101 0 101 0 -4 223 c-4 242 -10 271 -66 331 -60
64 -174 85 -258 47z"/>
<path d="M297 903 c-4 -3 -7 -141 -7 -305 l0 -298 100 0 100 0 0 305 0 305
-93 0 c-52 0 -97 -3 -100 -7z"/>
</g>
</svg>
